PathFileType	4	(X/Y/Z)	..\data\2015007\dynamic\2015007_C4_03.trc
DataRate	CameraRate	NumFrames	NumMarkers	Units	OrigDataRate	OrigDataStartFrame	OrigNumFrames
100.000000	100.000000	4	52	mm	100.000000	62	166
Frame#	Time	L_IAS			L_IPS			R_IPS			R_IAS			L_FTC			L_FLE			L_FME			L_FAX			L_TTC			L_FAL			L_TAM			L_FCC			L_FM1			L_FM2			L_FM5			R_FTC			R_FLE			R_FME			R_FAX			R_TTC			R_FAL			R_TAM			R_FCC			R_FM1			R_FM2			R_FM5			CV7			TV10			SXS			SJN			L_SIA			L_SRS			L_SAA			L_SAE			L_HLE			L_HME			L_UOA			L_RSP			L_UHE			L_HM2			L_HM5			R_SIA			R_SRS			R_SAA			R_SAE			R_HLE			R_HME			R_UOA			R_RSP			R_UHE			R_HM2			R_HM5			
		X1	Y1	Z1	X2	Y2	Z2	X3	Y3	Z3	X4	Y4	Z4	X5	Y5	Z5	X6	Y6	Z6	X7	Y7	Z7	X8	Y8	Z8	X9	Y9	Z9	X10	Y10	Z10	X11	Y11	Z11	X12	Y12	Z12	X13	Y13	Z13	X14	Y14	Z14	X15	Y15	Z15	X16	Y16	Z16	X17	Y17	Z17	X18	Y18	Z18	X19	Y19	Z19	X20	Y20	Z20	X21	Y21	Z21	X22	Y22	Z22	X23	Y23	Z23	X24	Y24	Z24	X25	Y25	Z25	X26	Y26	Z26	X27	Y27	Z27	X28	Y28	Z28	X29	Y29	Z29	X30	Y30	Z30	X31	Y31	Z31	X32	Y32	Z32	X33	Y33	Z33	X34	Y34	Z34	X35	Y35	Z35	X36	Y36	Z36	X37	Y37	Z37	X38	Y38	Z38	X39	Y39	Z39	X40	Y40	Z40	X41	Y41	Z41	X42	Y42	Z42	X43	Y43	Z43	X44	Y44	Z44	X45	Y45	Z45	X46	Y46	Z46	X47	Y47	Z47	X48	Y48	Z48	X49	Y49	Z49	X50	Y50	Z50	X51	Y51	Z51	X52	Y52	Z52	

63	0.62	-470.6934814453126	891.426452636719	103.3131942749023	-686.9952392578126	893.165710449219	180.1762542724609	-680.0640869140626	898.548767089844	285.4751892089844	-463.470428466797	882.7190551757815	352.963134765625	-540.5462646484376	785.0449218750002	44.02865600585932	-386.0909729003907	444.9306640625001	104.4045333862305	-393.4479370117189	425.3383178710939	225.7716217041016	-387.1792602539064	385.3453369140626	96.97155761718749	-337.5401306152344	386.2944641113282	152.1363220214844	-350.6692810058594	65.56781005859376	133.1304321289062	-332.6654663085938	73.11461639404298	214.2205047607422	-389.6920471191407	14.86895751953125	185.9636840820312	-217.9826049804688	27.86797714233399	197.1145172119141	-218.3031158447266	38.55073928833009	149.0186462402344	-266.8405456542969	18.4067668914795	109.2349090576172	-567.7600097656251	790.2512817382815	413.4839477539063	-638.0459594726564	426.4019165039064	356.7443237304688	-644.0898437500001	410.0201416015626	229.8611145019531	-676.7916870117189	382.2565917968751	362.40234375	-636.3840332031251	348.0408020019532	319.2934875488281	-871.5162353515627	116.1228485107422	336.7873535156249	-839.4879150390627	113.8309326171875	256.4595031738281	-929.7943115234377	96.96657562255862	282.7275695800781	-780.0930175781252	17.59017562866211	266.1415405273437	-781.3779907226565	28.53560447692872	311.4331665039062	-834.0523071289065	18.44193077087403	359.4317321777343	-595.0794067382814	1387.418334960938	245.5162963867187	-687.4995117187501	1148.682250976563	233.8078308105468	-423.109344482422	1056.7783203125	216.3210296630859	-478.1819763183595	1307.194946289063	230.3381195068359	-693.8755493164064	1197.5654296875	151.8675079345703	-655.9162597656251	1325.786743164063	143.0570526123046	-616.0560913085939	1331.02197265625	77.43737792968744	-567.9919433593751	1339.290161132813	61.10533905029291	-646.1144409179689	1037.972045898438	-6.397211074829182	-660.2130737304689	1032.104614257813	70.96680450439446	-672.8924560546876	1020.612548828125	23.52532958984367	-601.0614624023439	800.310974121094	-1.313037991523817	-669.4293823242189	814.9338378906252	-41.63698959350595	-596.6311035156251	733.0862426757814	-12.00471401214607	-686.6636962890626	756.1836547851564	-44.23740768432626	-688.7627563476564	1188.082153320313	317.0890502929688	-646.9526977539064	1312.086303710938	324.3264465332031	-589.7547607421876	1313.2021484375	393.7438659667969	-541.8562011718751	1317.60009765625	407.6392517089844	-515.4121704101565	1000.869567871094	480.3477478027344	-560.3572998046876	981.6082153320315	423.9013671875001	-538.8851318359377	963.313659667969	466.2073364257813	-373.8685913085939	823.8890380859377	434.6459350585938	-409.2920837402345	807.075866699219	482.2838134765626	-318.3029785156251	763.5216064453126	433.7223205566407	-379.3977966308595	745.1973876953126	488.1983337402344	
64	0.63	-458.6770324707032	893.0551757812502	101.2114868164062	-674.5964355468751	894.035339355469	179.2431182861328	-666.9869995117189	898.371520996094	284.9312438964844	-450.345916748047	882.5984497070315	350.2805786132812	-528.3695678710939	786.6343383789065	42.31176376342768	-374.1900939941407	445.5677185058595	104.0551986694336	-382.0339660644532	426.9182739257814	225.0893859863281	-375.8443603515626	385.9089965820314	96.7173614501953	-327.5027160644532	385.9239196777345	152.3082275390625	-348.5136718750001	65.29146575927736	133.4695892333984	-331.2724304199219	72.32617187500001	214.7827911376953	-389.5694274902345	15.34511852264405	185.6709899902343	-217.0664215087891	24.28457069396973	197.9781494140625	-216.2785644531251	35.35230255126954	149.4104156494141	-266.2290954589844	16.9547348022461	109.2241821289062	-553.6785278320314	788.9146118164065	411.8401184082032	-620.2406005859376	424.9612731933595	356.7026672363281	-625.5812377929689	407.4433593750001	229.9873962402343	-659.9487915039064	381.8687438964844	362.5989379882812	-620.2527465820314	346.2783813476563	320.0491027832031	-863.2398681640627	122.6946792602539	338.3127441406249	-830.7744750976565	118.4091720581055	258.2991638183593	-921.7126464843752	107.0078887939453	283.4576110839843	-779.7412109375002	18.25082778930664	266.1106262207031	-779.8835449218752	28.83827781677247	311.2008666992187	-832.029235839844	21.42663955688477	359.6058349609374	-583.2812500000001	1388.089477539063	244.5366821289062	-675.2119750976564	1149.241455078125	233.002456665039	-409.8252868652345	1057.809936523438	214.0927886962891	-466.3050842285157	1308.059204101563	228.9129943847656	-681.9314575195314	1198.048583984375	150.9706268310546	-644.3140258789064	1326.37890625	142.1219482421874	-604.6664428710939	1331.840209960938	76.49782562255854	-556.6273803710939	1340.215576171875	59.95223236083979	-633.7936401367189	1038.748291015625	-7.905410766601642	-647.5299072265626	1032.650390625	69.53105926513665	-660.3912353515626	1021.206726074219	22.06696128845207	-587.7816162109376	801.2774658203127	-3.683178424835278	-656.3473510742189	815.726501464844	-43.64290237426766	-583.2643432617189	734.0487060546876	-14.59157562255867	-673.4321289062501	756.9450683593751	-46.33221817016611	-676.3627929687501	1188.54296875	316.3411560058594	-634.7237548828126	1312.634399414063	323.4872131347656	-577.2432861328126	1313.8046875	392.7463989257813	-529.2816772460939	1318.160278320313	406.4048461914063	-504.4627990722658	1001.254943847656	478.5184326171876	-549.2791748046876	982.3652343750002	421.8546142578126	-528.1597290039065	963.932067871094	464.3532409667969	-364.509979248047	822.827087402344	433.6748352050782	-400.3108520507814	806.4234008789065	481.1467590332032	-309.6458129882814	761.8460693359376	433.0180053710938	-371.0844116210939	744.2302246093751	487.2364807128907	
65	0.64	-446.8443298339845	894.918151855469	99.0981750488281	-662.3681640625001	895.0281372070315	178.3691406249999	-654.0440063476564	898.2854614257815	284.4290771484375	-437.4169311523439	882.5984497070315	347.5877685546875	-516.3715209960939	788.3872680664065	40.56060791015619	-362.9413146972657	446.1581115722657	103.6708602905273	-371.4246520996094	428.353485107422	224.410400390625	-365.2068481445313	386.4501953125001	96.40798950195311	-318.1285705566407	385.5724182128907	152.4546356201172	-346.6493835449219	65.2125930786133	133.7755279541016	-330.1650390625001	71.82530975341798	215.2938232421875	-389.4356689453126	15.82903671264649	185.3677520751953	-216.3475952148438	21.56641387939453	198.7010498046875	-214.5543670654298	33.00082015991212	149.6642150878906	-265.7436523437501	16.07678031921387	109.0998229980469	-539.6889648437501	787.5820922851565	410.2127380371094	-601.5518188476564	423.4876708984376	356.7010498046875	-605.9411621093751	404.7474975585939	230.1402130126953	-642.0491943359376	381.4996948242188	362.8480834960938	-603.1002197265626	344.5730895996094	320.8633422851562	-853.699645996094	129.6341705322266	339.6864013671874	-820.7805786132815	123.2327270507813	260.0329589843749	-912.2114257812502	117.4443283081055	283.9966125488281	-778.3919677734377	19.36334037780762	266.3026733398437	-777.4016723632815	29.56373977661134	311.1546020507812	-829.0246582031252	25.2544288635254	359.8711853027343	-571.5058593750001	1388.927368164063	243.6003875732422	-663.0133056640626	1150.008544921875	232.2722625732422	-396.621063232422	1058.970825195313	211.8190460205078	-454.4754333496095	1309.058715820313	227.5373382568359	-670.0396118164064	1198.698608398438	150.0989685058593	-632.7305297851564	1327.141845703125	141.2090301513671	-593.2868652343751	1332.831909179688	75.59609222412104	-545.2675781250001	1341.3212890625	58.83852767944331	-621.3308105468751	1039.688720703125	-9.470201492309648	-634.7433471679689	1033.33154296875	68.0361709594726	-647.7530517578126	1021.914611816406	20.53506469726555	-574.0628662109376	802.4604492187502	-6.141175270080638	-642.8551635742189	816.632751464844	-45.68943023681649	-569.3383789062501	735.2415161132814	-17.33493995666511	-659.6824340820314	757.7858276367189	-48.48799514770517	-664.0377807617189	1189.22216796875	315.6651306152344	-622.5241699218751	1313.374145507813	322.7047119140625	-564.7412109375001	1314.597534179688	391.7997436523438	-516.7020263671876	1318.891357421875	405.1924743652344	-493.5718383789064	1001.785888671875	476.6325378417969	-538.2819824218751	983.321716308594	419.7662658691407	-517.5537109375001	964.741394042969	462.4669799804688	-355.4865722656251	821.7248535156252	432.7438354492188	-391.6774291992189	805.819274902344	480.0693969726563	-301.4411621093751	760.0366821289064	432.3631591796876	-363.2245483398439	743.2689819335939	486.3525390625001	
66	0.65	-435.1934814453126	896.9395141601565	97.01277923583982	-650.3268432617189	896.1312255859377	177.5147094726562	-641.2994384765626	898.3181152343752	283.90966796875	-424.736297607422	882.7219238281252	344.9582214355469	-504.5585021972657	790.2454833984377	38.79209136962885	-352.4931640625001	446.6375427246095	103.2406997680664	-361.7209777832032	429.5515441894532	223.7409057617188	-355.4369201660157	386.9017639160157	96.04409790039061	-309.5006408691407	385.189666748047	152.5426635742188	-345.0647583007813	65.27527618408205	134.0577697753906	-329.2946777343751	71.55870056152345	215.7577514648438	-389.2669677734376	16.27708244323731	185.0868072509765	-215.7788696289063	19.66155815124512	199.2775573730469	-213.1157836914063	31.42867279052735	149.7944488525391	-265.3466796875001	15.68074798583985	108.8981018066406	-525.8949584960939	786.3211059570315	408.5970764160157	-582.0900878906251	422.0588378906251	356.7253112792969	-585.2542724609376	402.0369262695314	230.3034515380859	-623.1734619140626	381.2114562988282	363.1268615722656	-584.9827270507814	343.0005493164063	321.7026977539062	-842.860046386719	136.8568420410157	340.8462219238281	-809.474304199219	128.2595367431641	261.5930175781249	-901.2556152343752	128.0575866699219	284.3030395507812	-775.6717529296877	20.97895240783692	266.8079223632812	-773.6407470703127	30.79610061645509	311.3838195800781	-824.784118652344	29.94665908813477	360.2586364746093	-559.7756347656251	1389.911499023438	242.7062683105469	-650.9335937500001	1150.959106445313	231.591796875	-383.5722351074219	1060.230224609375	209.5445861816406	-442.7124023437501	1310.171508789063	226.2308959960938	-658.2144775390626	1199.498657226563	149.234146118164	-621.1746826171876	1328.059692382813	140.3117980957031	-581.9138183593751	1333.972290039063	74.72344970703119	-533.9079589843751	1342.579956054688	57.7681274414062	-608.7367553710939	1040.774047851563	-11.09462070465096	-621.8851928710939	1034.129150390625	66.47132110595697	-634.9942626953126	1022.717529296875	18.92103576660149	-559.9285888671876	803.840270996094	-8.661076545715403	-628.9660644531251	817.6343994140627	-47.77529144287118	-554.8722534179689	736.6483154296876	-20.19864845275886	-645.4247436523439	758.6913452148439	-50.7063865661622	-651.8311157226564	1190.096069335938	315.0328369140625	-610.3980102539064	1314.2822265625	321.9628601074219	-552.3099975585939	1315.552734375	390.8980407714844	-504.1839904785158	1319.767700195313	404.0123901367188	-482.7510986328127	1002.437622070313	474.7025146484376	-527.3820800781251	984.4477539062502	417.6594238281251	-507.0746459960939	965.7160644531252	460.5614624023438	-346.7798767089845	820.5979614257815	431.8468933105469	-383.3607482910157	805.2720336914065	479.0515441894532	-293.6577453613282	758.1262817382814	431.7437744140626	-355.7745361328126	742.3320312500001	485.5426025390626	
